<svg xmlns="http://www.w3.org/2000/svg" width="512" height="512" viewBox="0 0 512 512" version="1.1">
	<path d="M 15.907 8.327 C 13.483 9.606, 10.150 12.570, 8.500 14.913 L 5.500 19.172 5.500 257.409 L 5.500 495.646 8.183 499.700 C 9.931 502.342, 12.699 504.668, 16.129 506.377 L 21.393 509 255.446 508.994 C 423.804 508.990, 490.622 508.677, 493.497 507.879 C 498.714 506.431, 505.431 499.714, 506.879 494.497 C 508.403 489.009, 508.462 26.204, 506.940 20.723 C 505.575 15.807, 500.550 10.155, 495.509 7.865 C 491.668 6.120, 481.623 6.043, 255.907 6.022 L 20.315 6 15.907 8.327 M 259.667 162.667 C 259.300 163.033, 259 205.783, 259 257.667 L 259 352 287.750 351.942 L 316.500 351.883 337 323.943 C 348.275 308.576, 357.725 296.027, 358 296.057 C 358.275 296.086, 367.715 308.686, 378.977 324.055 L 399.455 352 427.286 352 C 449.283 352, 454.961 351.738, 454.371 350.750 C 453.961 350.063, 438.564 329.025, 420.157 304 C 401.750 278.975, 386.684 258.024, 386.678 257.442 C 386.672 256.861, 401.759 235.873, 420.206 210.804 C 438.652 185.734, 454.053 164.723, 454.431 164.111 C 454.929 163.306, 447.434 163, 427.245 163 L 399.372 163 379.024 190.541 C 367.833 205.688, 358.412 218.245, 358.088 218.443 C 357.765 218.642, 348.526 206.644, 337.557 191.781 C 326.589 176.918, 316.994 164.137, 316.236 163.379 C 315.132 162.275, 309.429 162, 287.595 162 C 272.601 162, 260.033 162.300, 259.667 162.667 M 57 257.500 L 57 352 84.992 352 L 112.984 352 113.242 292.344 L 113.500 232.687 149.353 276.819 L 185.206 320.951 198.353 304.777 C 205.584 295.881, 220.151 278.005, 230.724 265.052 L 249.948 241.500 249.974 206.623 L 250 171.746 244.750 178.164 C 241.862 181.695, 227.367 199.527, 212.537 217.792 C 197.708 236.056, 185.333 250.971, 185.037 250.936 C 184.742 250.901, 168.525 231.115, 149 206.968 L 113.500 163.064 85.250 163.032 L 57 163 57 257.500 M 315 257.468 C 315 280.067, 313.824 279.109, 324.214 264.975 L 329.747 257.449 322.917 248.101 C 319.160 242.960, 315.842 238.509, 315.543 238.210 C 315.244 237.911, 315 246.577, 315 257.468" stroke="none" fill="black" fill-rule="evenodd"/>
</svg>