<svg width="61" height="61" viewBox="0 0 61 61" fill="none" xmlns="http://www.w3.org/2000/svg">
<circle cx="30.5" cy="30.5" r="30" fill="#91EA7B" stroke="white"/>
<g filter="url(#filter0_d_1108_5)">
<path d="M27.4496 18.3C27.4496 16.6155 28.8151 15.25 30.4996 15.25V15.25C32.1841 15.25 33.5496 16.6155 33.5496 18.3V42.7C33.5496 44.3845 32.1841 45.75 30.4996 45.75V45.75C28.8151 45.75 27.4496 44.3845 27.4496 42.7V18.3Z" fill="white"/>
<path d="M16.7746 33.55C15.0901 33.55 13.7246 32.1845 13.7246 30.5V30.5C13.7246 28.8155 15.0901 27.45 16.7746 27.45H44.2246C45.9091 27.45 47.2746 28.8155 47.2746 30.5V30.5C47.2746 32.1845 45.9091 33.55 44.2246 33.55H16.7746Z" fill="white"/>
</g>
<defs>
<filter id="filter0_d_1108_5" x="9.72461" y="15.25" width="41.5508" height="38.5" filterUnits="userSpaceOnUse" color-interpolation-filters="sRGB">
<feFlood flood-opacity="0" result="BackgroundImageFix"/>
<feColorMatrix in="SourceAlpha" type="matrix" values="0 0 0 0 0 0 0 0 0 0 0 0 0 0 0 0 0 0 127 0" result="hardAlpha"/>
<feOffset dy="4"/>
<feGaussianBlur stdDeviation="2"/>
<feComposite in2="hardAlpha" operator="out"/>
<feColorMatrix type="matrix" values="0 0 0 0 0 0 0 0 0 0 0 0 0 0 0 0 0 0 0.25 0"/>
<feBlend mode="normal" in2="BackgroundImageFix" result="effect1_dropShadow_1108_5"/>
<feBlend mode="normal" in="SourceGraphic" in2="effect1_dropShadow_1108_5" result="shape"/>
</filter>
</defs>
</svg>
